<svg width="33" height="33" viewBox="0 0 33 33" fill="none" xmlns="http://www.w3.org/2000/svg">
<path d="M15.6891 27.1666C12.7198 27.1666 11.2344 27.1666 9.99576 26.4986C8.75576 25.8293 7.96909 24.6053 6.39442 22.1533L5.48642 20.74C4.16242 18.6786 3.49976 17.6466 3.49976 16.5C3.49976 15.3533 4.16242 14.3213 5.48642 12.26L6.39309 10.8466C7.96776 8.39598 8.75442 7.17065 9.99442 6.50131C11.2344 5.83331 12.7198 5.83331 15.6891 5.83331H19.2051C24.3718 5.83331 26.9558 5.83331 28.5611 7.39598C30.1664 8.95731 30.1664 11.472 30.1664 16.5C30.1664 21.528 30.1664 24.0426 28.5611 25.604C26.9558 27.1666 24.3718 27.1666 19.2064 27.1666H15.6891Z" stroke="#FF472B" stroke-width="2"/>
<path d="M21.4999 13.1666L14.8333 19.8333M14.8333 13.1666L21.4999 19.8333" stroke="#FF472B" stroke-width="2" stroke-linecap="round"/>
</svg>
