<svg width="20" height="20" viewBox="0 0 20 20" fill="none" xmlns="http://www.w3.org/2000/svg">
<path d="M1.73328 13.9583C2.00829 16.175 3.82495 17.9917 6.04162 18.2667C7.38329 18.4333 8.63329 18.0667 9.60829 17.35C10.1666 16.9417 10.0333 16.075 9.36662 15.875C6.85829 15.1167 4.88329 13.1333 4.11662 10.625C3.91662 9.96665 3.04995 9.83332 2.64162 10.3833C1.93328 11.3667 1.56662 12.6167 1.73328 13.9583Z" fill="#679A90"/>
<path d="M11.6749 1.66666C15.3499 1.66666 18.3333 4.64999 18.3333 8.32499C18.3333 12 15.3499 14.9833 11.6749 14.9833C7.99992 14.9833 5.01658 12 5.01658 8.32499C5.02492 4.64999 7.99992 1.66666 11.6749 1.66666ZM12.4583 7.39166L10.4499 8.09166C9.72492 8.34999 9.37492 8.85832 9.37492 9.64166C9.37492 10.5417 10.0916 11.2833 10.9666 11.2833H11.0416V11.325C11.0416 11.6667 11.3249 11.95 11.6666 11.95C12.0083 11.95 12.2916 11.6667 12.2916 11.325V11.275C13.2166 11.2333 13.9583 10.4583 13.9583 9.49166C13.9583 9.14999 13.6749 8.86666 13.3333 8.86666C12.9916 8.86666 12.7083 9.14999 12.7083 9.49166C12.7083 9.79166 12.4916 10.0333 12.2249 10.0333H10.9749C10.7833 10.0333 10.6333 9.85832 10.6333 9.64166C10.6333 9.34999 10.6833 9.33332 10.8749 9.26666L12.8833 8.56666C13.5999 8.31666 13.9583 7.80832 13.9583 7.01666C13.9583 6.11666 13.2416 5.37499 12.3666 5.37499H12.2916V5.34166C12.2916 4.99999 12.0083 4.71666 11.6666 4.71666C11.3249 4.71666 11.0416 4.99999 11.0416 5.34166V5.39166C10.1166 5.43332 9.37492 6.20832 9.37492 7.17499C9.37492 7.51666 9.65825 7.79999 9.99992 7.79999C10.3416 7.79999 10.6249 7.51666 10.6249 7.17499C10.6249 6.87499 10.8416 6.63332 11.1083 6.63332H12.3583C12.5499 6.63332 12.6999 6.80832 12.6999 7.02499C12.7083 7.30832 12.6583 7.32499 12.4583 7.39166Z" fill="#679A90"/>
</svg>
