<svg width="16" height="16" viewBox="0 0 16 16" fill="none" xmlns="http://www.w3.org/2000/svg">
<path d="M1.33334 6.49967C1.06001 6.49967 0.833344 6.27301 0.833344 5.99967V4.33301C0.833344 2.39967 2.40668 0.833008 4.33334 0.833008H6.00001C6.27334 0.833008 6.50001 1.05967 6.50001 1.33301C6.50001 1.60634 6.27334 1.83301 6.00001 1.83301H4.33334C2.95334 1.83301 1.83334 2.95301 1.83334 4.33301V5.99967C1.83334 6.27301 1.60668 6.49967 1.33334 6.49967Z" fill="#272727"/>
<path d="M14.6667 6.49967C14.3933 6.49967 14.1667 6.27301 14.1667 5.99967V4.33301C14.1667 2.95301 13.0467 1.83301 11.6667 1.83301H10C9.72667 1.83301 9.5 1.60634 9.5 1.33301C9.5 1.05967 9.72667 0.833008 10 0.833008H11.6667C13.5933 0.833008 15.1667 2.39967 15.1667 4.33301V5.99967C15.1667 6.27301 14.94 6.49967 14.6667 6.49967Z" fill="#272727"/>
<path d="M11.6667 15.167H10.6667C10.3933 15.167 10.1667 14.9403 10.1667 14.667C10.1667 14.3937 10.3933 14.167 10.6667 14.167H11.6667C13.0467 14.167 14.1667 13.047 14.1667 11.667V10.667C14.1667 10.3937 14.3933 10.167 14.6667 10.167C14.94 10.167 15.1667 10.3937 15.1667 10.667V11.667C15.1667 13.6003 13.5933 15.167 11.6667 15.167Z" fill="#272727"/>
<path d="M6.00001 15.1667H4.33334C2.40668 15.1667 0.833344 13.6 0.833344 11.6667V10C0.833344 9.72667 1.06001 9.5 1.33334 9.5C1.60668 9.5 1.83334 9.72667 1.83334 10V11.6667C1.83334 13.0467 2.95334 14.1667 4.33334 14.1667H6.00001C6.27334 14.1667 6.50001 14.3933 6.50001 14.6667C6.50001 14.94 6.27334 15.1667 6.00001 15.1667Z" fill="#272727"/>
<path d="M9.33332 12.1663H6.66666C5.05332 12.1663 4.16666 11.2797 4.16666 9.66634V6.33301C4.16666 4.71967 5.05332 3.83301 6.66666 3.83301H9.33332C10.9467 3.83301 11.8333 4.71967 11.8333 6.33301V9.66634C11.8333 11.2797 10.9467 12.1663 9.33332 12.1663ZM6.66666 4.83301C5.61332 4.83301 5.16666 5.27967 5.16666 6.33301V9.66634C5.16666 10.7197 5.61332 11.1663 6.66666 11.1663H9.33332C10.3867 11.1663 10.8333 10.7197 10.8333 9.66634V6.33301C10.8333 5.27967 10.3867 4.83301 9.33332 4.83301H6.66666Z" fill="#272727"/>
<path d="M12.6667 8.5H3.33334C3.06001 8.5 2.83334 8.27333 2.83334 8C2.83334 7.72667 3.06001 7.5 3.33334 7.5H12.6667C12.94 7.5 13.1667 7.72667 13.1667 8C13.1667 8.27333 12.94 8.5 12.6667 8.5Z" fill="#272727"/>
</svg>
