<svg width="20" height="20" viewBox="0 0 20 20" fill="none" xmlns="http://www.w3.org/2000/svg">
<path d="M10 18.0417C9.74166 18.0417 9.49166 18.0083 9.28333 17.9333C6.1 16.8417 1.04166 12.9667 1.04166 7.24168C1.04166 4.32501 3.4 1.95834 6.3 1.95834C7.70833 1.95834 9.025 2.50834 10 3.49168C10.975 2.50834 12.2917 1.95834 13.7 1.95834C16.6 1.95834 18.9583 4.33334 18.9583 7.24168C18.9583 12.975 13.9 16.8417 10.7167 17.9333C10.5083 18.0083 10.2583 18.0417 10 18.0417ZM6.3 3.20834C4.09166 3.20834 2.29166 5.01668 2.29166 7.24168C2.29166 12.9333 7.76666 16.1 9.69166 16.7583C9.84166 16.8083 10.1667 16.8083 10.3167 16.7583C12.2333 16.1 17.7167 12.9417 17.7167 7.24168C17.7167 5.01668 15.9167 3.20834 13.7083 3.20834C12.4417 3.20834 11.2667 3.80001 10.5083 4.82501C10.275 5.14168 9.74166 5.14168 9.50833 4.82501C8.73333 3.79168 7.56666 3.20834 6.3 3.20834Z" fill="#272727"/>
</svg>
