<svg width="20" height="20" viewBox="0 0 20 20" fill="none" xmlns="http://www.w3.org/2000/svg">
<path d="M9.99992 1.66666C14.5999 1.66666 18.3333 5.39999 18.3333 9.99999C18.3333 14.6 14.5999 18.3333 9.99992 18.3333C5.39992 18.3333 1.66658 14.6 1.66658 9.99999C1.66658 5.39999 5.39992 1.66666 9.99992 1.66666ZM12.7249 6.38332C12.0499 6.38332 11.4916 6.93332 11.4916 7.61666C11.4916 8.29166 12.0416 8.84999 12.7249 8.84999C13.3999 8.84999 13.9583 8.29999 13.9583 7.61666C13.9583 6.93332 13.4083 6.38332 12.7249 6.38332ZM12.6249 13.1667C12.7499 13.2917 12.9083 13.35 13.0666 13.35C13.2249 13.35 13.3833 13.2917 13.5083 13.1667C13.7499 12.925 13.7499 12.525 13.5083 12.2833L8.04992 6.82499C7.80825 6.58332 7.40825 6.58332 7.16658 6.82499C6.92492 7.06666 6.92492 7.46666 7.16658 7.70832L12.6249 13.1667ZM7.27492 13.6167C7.94992 13.6167 8.50825 13.0667 8.50825 12.3833C8.50825 11.7083 7.95825 11.15 7.27492 11.15C6.59992 11.15 6.04158 11.7 6.04158 12.3833C6.04158 13.0667 6.59158 13.6167 7.27492 13.6167Z" fill="#679A90"/>
</svg>
