<svg width="14" height="14" viewBox="0 0 14 14" fill="none" xmlns="http://www.w3.org/2000/svg">
<path d="M8.74996 13.2708H5.24996C2.08246 13.2708 0.729126 11.9175 0.729126 8.74999V5.24999C0.729126 2.08249 2.08246 0.729156 5.24996 0.729156H6.41663C6.65579 0.729156 6.85413 0.92749 6.85413 1.16666C6.85413 1.40582 6.65579 1.60416 6.41663 1.60416H5.24996C2.56079 1.60416 1.60413 2.56082 1.60413 5.24999V8.74999C1.60413 11.4392 2.56079 12.3958 5.24996 12.3958H8.74996C11.4391 12.3958 12.3958 11.4392 12.3958 8.74999V7.58332C12.3958 7.34416 12.5941 7.14582 12.8333 7.14582C13.0725 7.14582 13.2708 7.34416 13.2708 7.58332V8.74999C13.2708 11.9175 11.9175 13.2708 8.74996 13.2708Z" fill="#272727"/>
<path d="M4.95828 10.3192C4.60244 10.3192 4.27578 10.1908 4.03661 9.9575C3.75078 9.67167 3.62828 9.2575 3.69244 8.82L3.94328 7.06417C3.98994 6.72584 4.21161 6.28834 4.45078 6.04917L9.04744 1.4525C10.2083 0.29167 11.3866 0.29167 12.5474 1.4525C13.1833 2.08834 13.4691 2.73584 13.4108 3.38334C13.3583 3.90834 13.0783 4.42167 12.5474 4.94667L7.95078 9.54334C7.71161 9.7825 7.27411 10.0042 6.93578 10.0508L5.17994 10.3017C5.10411 10.3192 5.02828 10.3192 4.95828 10.3192ZM9.66578 2.07084L5.06911 6.6675C4.95828 6.77834 4.82994 7.035 4.80661 7.18667L4.55578 8.9425C4.53244 9.11167 4.56744 9.25167 4.65494 9.33917C4.74244 9.42667 4.88244 9.46167 5.05161 9.43834L6.80745 9.1875C6.95911 9.16417 7.22161 9.03584 7.32661 8.925L11.9233 4.32834C12.3024 3.94917 12.5008 3.61084 12.5299 3.29584C12.5649 2.91667 12.3666 2.51417 11.9233 2.065C10.9899 1.13167 10.3483 1.39417 9.66578 2.07084Z" fill="#272727"/>
<path d="M11.5792 5.73416C11.5383 5.73416 11.4975 5.72833 11.4625 5.71666C9.92833 5.285 8.70916 4.06583 8.27749 2.53166C8.21333 2.29833 8.34749 2.05916 8.58083 1.98916C8.81416 1.925 9.05333 2.05916 9.11749 2.2925C9.46749 3.535 10.4533 4.52083 11.6958 4.87083C11.9292 4.935 12.0633 5.18 11.9992 5.41333C11.9467 5.61166 11.7717 5.73416 11.5792 5.73416Z" fill="#272727"/>
</svg>
