<svg width="20" height="20" viewBox="0 0 20 20" fill="none" xmlns="http://www.w3.org/2000/svg">
<path d="M10 13.125C8.275 13.125 6.875 11.725 6.875 10C6.875 8.275 8.275 6.875 10 6.875C11.725 6.875 13.125 8.275 13.125 10C13.125 11.725 11.725 13.125 10 13.125ZM10 8.125C8.96667 8.125 8.125 8.96667 8.125 10C8.125 11.0333 8.96667 11.875 10 11.875C11.0333 11.875 11.875 11.0333 11.875 10C11.875 8.96667 11.0333 8.125 10 8.125Z" fill="#6B6B6B"/>
<path d="M12.675 18.4922C12.5 18.4922 12.325 18.4672 12.15 18.4256C11.6333 18.2839 11.2 17.9589 10.925 17.5006L10.825 17.3339C10.3333 16.4839 9.65829 16.4839 9.16663 17.3339L9.07496 17.4922C8.79996 17.9589 8.36663 18.2922 7.84996 18.4256C7.32496 18.5672 6.78329 18.4922 6.32496 18.2172L4.89163 17.3922C4.38329 17.1006 4.01663 16.6256 3.85829 16.0506C3.70829 15.4756 3.78329 14.8839 4.07496 14.3756C4.31663 13.9506 4.38329 13.5672 4.24163 13.3256C4.09996 13.0839 3.74163 12.9422 3.24996 12.9422C2.03329 12.9422 1.04163 11.9506 1.04163 10.7339V9.26723C1.04163 8.05056 2.03329 7.0589 3.24996 7.0589C3.74163 7.0589 4.09996 6.91723 4.24163 6.67556C4.38329 6.4339 4.32496 6.05056 4.07496 5.62556C3.78329 5.11723 3.70829 4.51723 3.85829 3.95056C4.00829 3.37556 4.37496 2.90056 4.89163 2.6089L6.33329 1.7839C7.27496 1.22556 8.51662 1.55056 9.08329 2.5089L9.18329 2.67556C9.67496 3.52556 10.35 3.52556 10.8416 2.67556L10.9333 2.51723C11.5 1.55056 12.7416 1.22556 13.6916 1.79223L15.125 2.61723C15.6333 2.9089 16 3.3839 16.1583 3.9589C16.3083 4.5339 16.2333 5.12556 15.9416 5.6339C15.7 6.0589 15.6333 6.44223 15.775 6.6839C15.9166 6.92556 16.275 7.06723 16.7666 7.06723C17.9833 7.06723 18.975 8.0589 18.975 9.27556V10.7422C18.975 11.9589 17.9833 12.9506 16.7666 12.9506C16.275 12.9506 15.9166 13.0922 15.775 13.3339C15.6333 13.5756 15.6916 13.9589 15.9416 14.3839C16.2333 14.8922 16.3166 15.4922 16.1583 16.0589C16.0083 16.6339 15.6416 17.1089 15.125 17.4006L13.6833 18.2256C13.3666 18.4006 13.025 18.4922 12.675 18.4922ZM9.99996 15.4089C10.7416 15.4089 11.4333 15.8756 11.9083 16.7006L12 16.8589C12.1 17.0339 12.2666 17.1589 12.4666 17.2089C12.6666 17.2589 12.8666 17.2339 13.0333 17.1339L14.475 16.3006C14.6916 16.1756 14.8583 15.9672 14.925 15.7172C14.9916 15.4672 14.9583 15.2089 14.8333 14.9922C14.3583 14.1756 14.3 13.3339 14.6666 12.6922C15.0333 12.0506 15.7916 11.6839 16.7416 11.6839C17.275 11.6839 17.7 11.2589 17.7 10.7256V9.2589C17.7 8.7339 17.275 8.30056 16.7416 8.30056C15.7916 8.30056 15.0333 7.9339 14.6666 7.29223C14.3 6.65056 14.3583 5.8089 14.8333 4.99223C14.9583 4.77556 14.9916 4.51723 14.925 4.26723C14.8583 4.01723 14.7 3.81723 14.4833 3.6839L13.0416 2.8589C12.6833 2.64223 12.2083 2.76723 11.9916 3.1339L11.9 3.29223C11.425 4.11723 10.7333 4.5839 9.99162 4.5839C9.24996 4.5839 8.55829 4.11723 8.08329 3.29223L7.99163 3.12556C7.78329 2.77556 7.31663 2.65056 6.95829 2.8589L5.51663 3.69223C5.29996 3.81723 5.13329 4.02556 5.06663 4.27556C4.99996 4.52556 5.03329 4.7839 5.15829 5.00056C5.63329 5.81723 5.69163 6.6589 5.32496 7.30056C4.95829 7.94223 4.19996 8.3089 3.24996 8.3089C2.71663 8.3089 2.29163 8.7339 2.29163 9.26723V10.7339C2.29163 11.2589 2.71663 11.6922 3.24996 11.6922C4.19996 11.6922 4.95829 12.0589 5.32496 12.7006C5.69163 13.3422 5.63329 14.1839 5.15829 15.0006C5.03329 15.2172 4.99996 15.4756 5.06663 15.7256C5.13329 15.9756 5.29163 16.1756 5.50829 16.3089L6.94996 17.1339C7.12496 17.2422 7.33329 17.2672 7.52496 17.2172C7.72496 17.1672 7.89163 17.0339 7.99996 16.8589L8.09163 16.7006C8.56663 15.8839 9.25829 15.4089 9.99996 15.4089Z" fill="#6B6B6B"/>
</svg>
